<?xml version="1.0" encoding="utf-8"?><svg xmlns="http://www.w3.org/2000/svg" xmlns:xlink="http://www.w3.org/1999/xlink"><symbol viewBox="0 0 477.175 477.175" id="arr_back" xmlns="http://www.w3.org/2000/svg"><path d="M145.188 238.575l215.5-215.5c5.3-5.3 5.3-13.8 0-19.1s-13.8-5.3-19.1 0l-225.1 225.1c-5.3 5.3-5.3 13.8 0 19.1l225.1 225c2.6 2.6 6.1 4 9.5 4s6.9-1.3 9.5-4c5.3-5.3 5.3-13.8 0-19.1l-215.4-215.5z"/></symbol><symbol viewBox="0 0 477.175 477.175" id="arr_next" xmlns="http://www.w3.org/2000/svg"><path d="M360.731 229.075l-225.1-225.1c-5.3-5.3-13.8-5.3-19.1 0s-5.3 13.8 0 19.1l215.5 215.5-215.5 215.5c-5.3 5.3-5.3 13.8 0 19.1 2.6 2.6 6.1 4 9.5 4 3.4 0 6.9-1.3 9.5-4l225.1-225.1c5.3-5.2 5.3-13.8.1-19z"/></symbol><symbol viewBox="0 0 31.494 31.494" id="back" xmlns="http://www.w3.org/2000/svg"><path d="M10.273 5.009a1.112 1.112 0 0 1 1.587 0 1.12 1.12 0 0 1 0 1.571l-8.047 8.047h26.554c.619 0 1.127.492 1.127 1.111s-.508 1.127-1.127 1.127H3.813l8.047 8.032c.429.444.429 1.159 0 1.587a1.112 1.112 0 0 1-1.587 0L.321 16.532a1.12 1.12 0 0 1 0-1.571l9.952-9.952z"/></symbol><symbol viewBox="0 0 45.102 45.102" id="complete" xmlns="http://www.w3.org/2000/svg"><path d="M17.021 44.403c.427.45.995.698 1.601.698a2.18 2.18 0 0 0 1.672-.791c8.155-9.735 19.136-21.879 23.248-24.062.906-.482 1.515-1.456 1.515-2.423V1.933C45.056.678 44.137 0 43.272 0c-.314 0-.795.086-1.283.494-3.067 2.556-17.81 15.301-22.718 27.964l-4.691-7.624c-.63-1.02-2.088-1.386-3.122-.783L1.102 26.075c-.599.349-.981.924-1.046 1.579-.065.654.194 1.294.714 1.755 2.139 1.9 12.977 11.543 16.251 14.994zm-4.643-21.419l5.636 9.16c.378.613.96.965 1.597.965.613 0 1.437-.375 1.736-1.432C24.438 20.776 36.79 9.016 42.054 4.387V17.64c-5.462 2.98-18.68 18.348-23.482 24.054-3.429-3.461-11.281-10.499-14.85-13.674l8.656-5.036z"/></symbol><symbol viewBox="0 0 438.533 438.533" id="dot" xmlns="http://www.w3.org/2000/svg"><path d="M409.133 109.203c-19.608-33.592-46.205-60.189-79.798-79.796C295.736 9.801 259.058 0 219.273 0c-39.781 0-76.47 9.801-110.063 29.407-33.595 19.604-60.192 46.201-79.8 79.796C9.801 142.8 0 179.489 0 219.267c0 39.78 9.804 76.463 29.407 110.062 19.607 33.592 46.204 60.189 79.799 79.798 33.597 19.605 70.283 29.407 110.063 29.407s76.47-9.802 110.065-29.407c33.593-19.602 60.189-46.206 79.795-79.798 19.603-33.596 29.403-70.284 29.403-110.062.001-39.782-9.8-76.472-29.399-110.064zm-55.391 188.005c-13.894 23.791-32.736 42.633-56.527 56.534-23.791 13.894-49.771 20.834-77.945 20.834-28.167 0-54.149-6.94-77.943-20.834-23.791-13.901-42.633-32.743-56.527-56.534-13.897-23.791-20.843-49.772-20.843-77.941 0-28.171 6.949-54.152 20.843-77.943 13.891-23.791 32.738-42.637 56.527-56.53 23.791-13.895 49.772-20.84 77.943-20.84 28.173 0 54.154 6.945 77.945 20.84 23.791 13.894 42.634 32.739 56.527 56.53 13.895 23.791 20.838 49.772 20.838 77.943 0 28.169-6.943 54.15-20.838 77.941z"/><path d="M219.27 146.178c-20.177 0-37.401 7.139-51.678 21.411-14.272 14.277-21.411 31.501-21.411 51.678 0 20.175 7.135 37.402 21.411 51.673 14.277 14.277 31.504 21.416 51.678 21.416 20.179 0 37.406-7.139 51.676-21.416 14.274-14.271 21.413-31.498 21.413-51.673 0-20.177-7.139-37.401-21.413-51.678-14.27-14.273-31.497-21.411-51.676-21.411z"/></symbol><symbol viewBox="0 0 512 512" id="fb" xmlns="http://www.w3.org/2000/svg"><path d="M256 375.333c-5.523 0-10 4.477-10 10v.16c0 5.523 4.477 10 10 10s10-4.477 10-10v-.16c0-5.523-4.477-10-10-10z"/><path d="M414 0H98C43.962 0 0 43.962 0 98v316c0 54.038 43.962 98 98 98h158c5.523 0 10-4.477 10-10v-77.5c0-5.523-4.477-10-10-10s-10 4.477-10 10V492H98c-43.009 0-78-34.991-78-78V98c0-43.009 34.991-78 78-78h316c43.009 0 78 34.991 78 78v316c0 43.009-34.991 78-78 78h-64V315.501h57.981a10 10 0 0 0 9.95-8.999l7.191-71.455a9.998 9.998 0 0 0-9.95-11.001H350v-37.521c0-6.791 2.163-9.316 7.981-9.316h56.742c5.523 0 10-4.477 10-10v-69.66c0-5.523-4.477-10-10-10h-74.517c-42.223 0-64.615 18.546-75.964 34.104-15.873 21.758-18.243 47.454-18.243 60.834v42.007h-49c-5.523 0-10 4.477-10 10V305.5c0 5.523 4.477 10 10 10h49V344c0 5.523 4.477 10 10 10s10-4.477 10-10v-38.5c0-5.523-4.477-10-10-10h-49v-51.007h49c5.523 0 10-4.477 10-10v-52.007c0-22.532 7.231-74.938 74.207-74.938h64.517v49.66h-46.742c-12.908 0-27.981 7.678-27.981 29.316v47.521c0 5.523 4.477 10 10 10h64.115l-5.178 51.455H340c-5.523 0-10 4.477-10 10V502c0 5.523 4.477 10 10 10h74c54.038 0 98-43.962 98-98V98c0-54.038-43.962-98-98-98z"/><path d="M58 102.5c-5.523 0-10 4.477-10 10V196c0 5.523 4.477 10 10 10s10-4.477 10-10v-83.5c0-5.523-4.477-10-10-10zm0 126.882c-5.523 0-10 4.477-10 10v.118c0 5.523 4.477 10 10 10s10-4.477 10-10v-.118c0-5.523-4.477-10-10-10z"/></symbol><symbol viewBox="0 0 512 512" id="home" xmlns="http://www.w3.org/2000/svg"><path d="M506.555 208.064L263.859 30.367a13.3 13.3 0 0 0-15.716 0L5.445 208.064c-5.928 4.341-7.216 12.665-2.875 18.593s12.666 7.214 18.593 2.875L256 57.588l234.837 171.943a13.236 13.236 0 0 0 7.848 2.57c4.096 0 8.138-1.885 10.744-5.445 4.342-5.927 3.054-14.251-2.874-18.592z"/><path d="M442.246 232.543c-7.346 0-13.303 5.956-13.303 13.303v211.749H322.521V342.009c0-36.68-29.842-66.52-66.52-66.52s-66.52 29.842-66.52 66.52v115.587H83.058V245.847c0-7.347-5.957-13.303-13.303-13.303s-13.303 5.956-13.303 13.303V470.9c0 7.347 5.957 13.303 13.303 13.303h133.029c6.996 0 12.721-5.405 13.251-12.267.032-.311.052-.651.052-1.036V342.01c0-22.009 17.905-39.914 39.914-39.914s39.914 17.906 39.914 39.914V470.9c0 .383.02.717.052 1.024.524 6.867 6.251 12.279 13.251 12.279h133.029c7.347 0 13.303-5.956 13.303-13.303V245.847c-.001-7.348-5.957-13.304-13.304-13.304z"/></symbol><symbol viewBox="0 0 512 512" id="inst" xmlns="http://www.w3.org/2000/svg"><path d="M362 0H150C67.29 0 0 67.29 0 150v212c0 82.71 67.29 150 150 150h212c82.71 0 150-67.29 150-150V150C512 67.29 444.71 0 362 0zm130 362c0 71.682-58.318 130-130 130H150c-71.682 0-130-58.318-130-130V150C20 78.318 78.318 20 150 20h212c71.682 0 130 58.318 130 130v212z"/><path d="M362 44H150C91.551 44 44 91.551 44 150v212c0 58.449 47.551 106 106 106h61c5.523 0 10-4.477 10-10s-4.477-10-10-10h-61c-47.42 0-86-38.58-86-86V150c0-47.42 38.58-86 86-86h212c47.42 0 86 38.58 86 86v212c0 47.42-38.58 86-86 86h-60.333c-5.523 0-10 4.477-10 10s4.477 10 10 10H362c58.449 0 106-47.551 106-106V150c0-58.449-47.551-106-106-106z"/><path d="M263.07 450.93c-1.86-1.86-4.44-2.93-7.07-2.93s-5.21 1.07-7.07 2.93S246 455.37 246 458s1.07 5.21 2.93 7.07S253.37 468 256 468s5.21-1.07 7.07-2.93c1.86-1.86 2.93-4.44 2.93-7.07s-1.07-5.21-2.93-7.07zm-87.24-295.22c-3.777-4.03-10.104-4.236-14.135-.461l-.443.417c-4.017 3.79-4.201 10.119-.41 14.136a9.97 9.97 0 0 0 7.275 3.137 9.966 9.966 0 0 0 6.861-2.727l.391-.367c4.03-3.776 4.237-10.105.461-14.135z"/><path d="M256 118c-21.964 0-43.824 5.291-63.217 15.301-4.907 2.533-6.832 8.565-4.299 13.473 2.534 4.907 8.566 6.831 13.473 4.299C218.762 142.398 236.945 138 256 138c65.065 0 118 52.935 118 118s-52.935 118-118 118-118-52.935-118-118c0-20.419 5.295-40.537 15.313-58.178 2.727-4.802 1.045-10.906-3.758-13.634-4.803-2.726-10.906-1.045-13.634 3.758C124.197 208.592 118 232.125 118 256c0 76.093 61.907 138 138 138s138-61.907 138-138-61.907-138-138-138z"/><path d="M256 166c-49.626 0-90 40.374-90 90s40.374 90 90 90 90-40.374 90-90-40.374-90-90-90zm0 160c-38.598 0-70-31.402-70-70s31.402-70 70-70 70 31.402 70 70-31.402 70-70 70zM387.25 86.75c-20.953 0-38 17.047-38 38s17.047 38 38 38 38-17.047 38-38-17.047-38-38-38zm0 56c-9.925 0-18-8.075-18-18s8.075-18 18-18 18 8.075 18 18-8.075 18-18 18z"/></symbol><symbol viewBox="0 0 512 512" id="liin" xmlns="http://www.w3.org/2000/svg"><path d="M446 0H66C29.607 0 0 29.607 0 66v380c0 36.393 29.607 66 66 66h380c36.393 0 66-29.607 66-66V66c0-36.393-29.607-66-66-66zm46 446c0 25.364-20.636 46-46 46H66c-25.364 0-46-20.636-46-46V66c0-25.364 20.636-46 46-46h380c25.364 0 46 20.636 46 46v380z"/><path d="M412.446 210.188c-.001 0-.001-.001 0 0-14.16-16.25-33.791-24.489-58.351-24.489-17.689 0-33.058 3.65-45.683 10.849-6.079 3.47-12.121 8.055-18.083 13.718v-9.537c0-5.523-4.478-10-10-10h-72.805c-5.522 0-10 4.477-10 10v222.519c0 5.523 4.478 10 10 10h72.268c5.522 0 10-4.477 10-10V297.061c0-16.801 12.339-30.639 28.092-31.503l2.549-.14c6.168-.332 12.128 1.889 16.76 6.274 5.039 4.769 7.929 11.626 7.929 18.813v132.742c0 5.523 4.478 10 10 10h68.128c5.522 0 10-4.477 10-10.002V281.814c0-31.679-7-55.778-20.804-71.626zm.804 203.059h-48.129V290.505c0-12.656-5.168-24.807-14.18-33.338-8.663-8.2-19.892-12.367-31.605-11.719l-2.549.14c-26.352 1.446-46.995 24.056-46.995 51.473v116.185h-52.268V210.728h52.805v26.248a10 10 0 0 0 18.058 5.923c9.996-13.597 20.069-23.348 29.937-28.979 9.565-5.455 21.6-8.221 35.771-8.221 18.783 0 32.936 5.766 43.27 17.627l-.001-.001c10.541 12.102 15.886 31.781 15.886 58.491v131.431zM165.879 190.729H93.074c-5.522 0-10 4.477-10 10V284c0 5.523 4.478 10 10 10s10-4.477 10-10v-73.271h52.805v202.518h-52.805V369c0-5.523-4.478-10-10-10s-10 4.477-10 10v54.247c0 5.523 4.478 10 10 10h72.805c5.522 0 10-4.477 10-10V200.729c0-5.523-4.478-10-10-10z"/><path d="M100.149 321.93a10.096 10.096 0 0 0-7.08-2.93c-2.63 0-5.21 1.07-7.069 2.93-1.861 1.86-2.931 4.44-2.931 7.07s1.071 5.21 2.931 7.07a10.072 10.072 0 0 0 7.069 2.93c2.641 0 5.211-1.07 7.08-2.93 1.861-1.86 2.931-4.44 2.931-7.07s-1.071-5.21-2.931-7.07zm29.328-243.177c-27.971 0-50.727 22.756-50.727 50.727s22.756 50.727 50.727 50.727 50.728-22.756 50.728-50.727-22.756-50.727-50.728-50.727zm0 81.454c-16.943 0-30.727-13.784-30.727-30.727s13.785-30.727 30.727-30.727c16.943 0 30.728 13.784 30.728 30.727s-13.785 30.727-30.728 30.727zM388.636 48h-81.5c-5.522 0-10 4.477-10 10s4.478 10 10 10h81.5c5.522 0 10-4.477 10-10s-4.478-10-10-10zm-126.881 0h-.119c-5.522 0-10 4.477-10 10s4.478 10 10 10h.119c5.522 0 10-4.477 10-10s-4.478-10-10-10z"/></symbol><symbol viewBox="0 0 512 512" id="location" xmlns="http://www.w3.org/2000/svg"><path d="M480.36 494.742h-14.382V43.146a8.629 8.629 0 0 0-8.629-8.629H296.27a8.628 8.628 0 0 0-8.629 8.629v37.393h-17.258V43.146a8.629 8.629 0 0 0-8.629-8.629H224.36V8.629c0-4.767-3.864-8.629-8.629-8.629s-8.629 3.862-8.629 8.629v25.888h-37.393a8.628 8.628 0 0 0-8.629 8.629v37.393h-25.888a8.628 8.628 0 0 0-8.629 8.629v71.91h-71.91a8.628 8.628 0 0 0-8.629 8.629v325.034H31.64c-4.766 0-8.629 3.862-8.629 8.629S26.875 512 31.64 512h448.72c4.766 0 8.629-3.862 8.629-8.629s-3.864-8.629-8.629-8.629zM178.337 51.775h74.786v28.764h-74.786V51.775zm-28.764 442.967h-5.753V480.36c0-4.767-3.864-8.629-8.629-8.629s-8.629 3.862-8.629 8.629v14.382h-5.753v-28.764h28.764v28.764zm57.528-221.484v221.484h-40.27v-37.393a8.629 8.629 0 0 0-8.629-8.629H112.18a8.628 8.628 0 0 0-8.629 8.629v37.393h-40.27V178.337h143.82v94.921zm8.629-112.179h-71.91V97.798h143.82v166.831h-63.28v-28.764h25.888c4.766 0 8.629-3.862 8.629-8.629s-3.864-8.629-8.629-8.629H224.36v-28.764h25.888c4.766 0 8.629-3.862 8.629-8.629s-3.864-8.629-8.629-8.629H224.36v-2.876a8.629 8.629 0 0 0-8.63-8.63zm152.45 333.663H224.36V281.888h143.82v212.854zm80.539 0h-63.281v-232.99c0-4.767-3.864-8.629-8.629-8.629s-8.629 3.862-8.629 8.629v2.876h-17.258v-2.876c0-4.767-3.864-8.629-8.629-8.629s-8.629 3.862-8.629 8.629v2.876H304.9V51.775h143.82v442.967z"/><path d="M261.753 477.485a8.63 8.63 0 0 0 8.629-8.629V307.778c0-4.767-3.864-8.629-8.629-8.629s-8.629 3.862-8.629 8.629v161.079a8.628 8.628 0 0 0 8.629 8.628zm34.517 0a8.63 8.63 0 0 0 8.629-8.629V307.778c0-4.767-3.864-8.629-8.629-8.629s-8.629 3.862-8.629 8.629v161.079a8.628 8.628 0 0 0 8.629 8.628zm34.516 0a8.63 8.63 0 0 0 8.629-8.629V307.778c0-4.767-3.864-8.629-8.629-8.629s-8.629 3.862-8.629 8.629v161.079a8.629 8.629 0 0 0 8.629 8.628zm11.506-368.182a8.628 8.628 0 0 0 8.629-8.629V89.169c0-4.767-3.864-8.629-8.629-8.629s-8.629 3.862-8.629 8.629v11.506a8.628 8.628 0 0 0 8.629 8.628zm34.517 0a8.628 8.628 0 0 0 8.629-8.629V89.169c0-4.767-3.864-8.629-8.629-8.629s-8.629 3.862-8.629 8.629v11.506a8.628 8.628 0 0 0 8.629 8.628zm34.517 0a8.628 8.628 0 0 0 8.629-8.629V89.169c0-4.767-3.864-8.629-8.629-8.629s-8.629 3.862-8.629 8.629v11.506a8.628 8.628 0 0 0 8.629 8.628zm-69.034 57.528a8.628 8.628 0 0 0 8.629-8.629v-11.506c0-4.767-3.864-8.629-8.629-8.629s-8.629 3.862-8.629 8.629v11.506a8.628 8.628 0 0 0 8.629 8.629zm34.517 0a8.628 8.628 0 0 0 8.629-8.629v-11.506c0-4.767-3.864-8.629-8.629-8.629s-8.629 3.862-8.629 8.629v11.506a8.628 8.628 0 0 0 8.629 8.629zm34.517 0a8.628 8.628 0 0 0 8.629-8.629v-11.506c0-4.767-3.864-8.629-8.629-8.629s-8.629 3.862-8.629 8.629v11.506a8.628 8.628 0 0 0 8.629 8.629zm-69.034 57.529a8.628 8.628 0 0 0 8.629-8.629v-11.506c0-4.767-3.864-8.629-8.629-8.629s-8.629 3.862-8.629 8.629v11.506a8.629 8.629 0 0 0 8.629 8.629zm34.517 0a8.628 8.628 0 0 0 8.629-8.629v-11.506c0-4.767-3.864-8.629-8.629-8.629s-8.629 3.862-8.629 8.629v11.506a8.629 8.629 0 0 0 8.629 8.629zm34.517 0a8.628 8.628 0 0 0 8.629-8.629v-11.506c0-4.767-3.864-8.629-8.629-8.629s-8.629 3.862-8.629 8.629v11.506a8.629 8.629 0 0 0 8.629 8.629zm-310.652 23.011a8.628 8.628 0 0 0 8.629-8.629v-11.506c0-4.767-3.864-8.629-8.629-8.629s-8.629 3.862-8.629 8.629v11.506a8.63 8.63 0 0 0 8.629 8.629zm34.517 0a8.628 8.628 0 0 0 8.629-8.629v-11.506c0-4.767-3.864-8.629-8.629-8.629s-8.629 3.862-8.629 8.629v11.506a8.629 8.629 0 0 0 8.629 8.629zm34.517 0a8.628 8.628 0 0 0 8.629-8.629v-11.506c0-4.767-3.864-8.629-8.629-8.629s-8.629 3.862-8.629 8.629v11.506a8.629 8.629 0 0 0 8.629 8.629zm-69.034 57.528a8.628 8.628 0 0 0 8.629-8.629v-11.506c0-4.767-3.864-8.629-8.629-8.629s-8.629 3.862-8.629 8.629v11.506a8.63 8.63 0 0 0 8.629 8.629zm34.517 0a8.628 8.628 0 0 0 8.629-8.629v-11.506c0-4.767-3.864-8.629-8.629-8.629s-8.629 3.862-8.629 8.629v11.506a8.629 8.629 0 0 0 8.629 8.629zm34.517 0a8.628 8.628 0 0 0 8.629-8.629v-11.506c0-4.767-3.864-8.629-8.629-8.629s-8.629 3.862-8.629 8.629v11.506a8.629 8.629 0 0 0 8.629 8.629zm-69.034 57.528a8.628 8.628 0 0 0 8.629-8.629v-11.506c0-4.767-3.864-8.629-8.629-8.629s-8.629 3.862-8.629 8.629v11.506a8.629 8.629 0 0 0 8.629 8.629zm34.517 0a8.628 8.628 0 0 0 8.629-8.629v-11.506c0-4.767-3.864-8.629-8.629-8.629s-8.629 3.862-8.629 8.629v11.506a8.628 8.628 0 0 0 8.629 8.629zm34.517 0a8.628 8.628 0 0 0 8.629-8.629v-11.506c0-4.767-3.864-8.629-8.629-8.629s-8.629 3.862-8.629 8.629v11.506a8.628 8.628 0 0 0 8.629 8.629zm-69.034 57.528a8.628 8.628 0 0 0 8.629-8.629V399.82c0-4.767-3.864-8.629-8.629-8.629s-8.629 3.862-8.629 8.629v11.506a8.629 8.629 0 0 0 8.629 8.629zm34.517 0a8.628 8.628 0 0 0 8.629-8.629V399.82c0-4.767-3.864-8.629-8.629-8.629s-8.629 3.862-8.629 8.629v11.506a8.628 8.628 0 0 0 8.629 8.629zm34.517 0a8.628 8.628 0 0 0 8.629-8.629V399.82c0-4.767-3.864-8.629-8.629-8.629s-8.629 3.862-8.629 8.629v11.506a8.628 8.628 0 0 0 8.629 8.629zm241.618-138.067a8.628 8.628 0 0 0 8.629-8.629v-11.506c0-4.767-3.864-8.629-8.629-8.629s-8.629 3.862-8.629 8.629v11.506a8.629 8.629 0 0 0 8.629 8.629zm0 57.528a8.628 8.628 0 0 0 8.629-8.629v-11.506c0-4.767-3.864-8.629-8.629-8.629s-8.629 3.862-8.629 8.629v11.506a8.629 8.629 0 0 0 8.629 8.629zm0 57.528a8.628 8.628 0 0 0 8.629-8.629v-11.506c0-4.767-3.864-8.629-8.629-8.629s-8.629 3.862-8.629 8.629v11.506a8.629 8.629 0 0 0 8.629 8.629zm0 57.528a8.628 8.628 0 0 0 8.629-8.629v-11.506c0-4.767-3.864-8.629-8.629-8.629s-8.629 3.862-8.629 8.629v11.506a8.629 8.629 0 0 0 8.629 8.629zm-152.45-319.281a8.629 8.629 0 0 0-8.629-8.629h-69.034a8.628 8.628 0 0 0-8.629 8.629 8.629 8.629 0 0 0 8.629 8.629h69.034a8.628 8.628 0 0 0 8.629-8.629z"/></symbol><symbol viewBox="0 0 512 512" id="login" xmlns="http://www.w3.org/2000/svg"><path d="M173.781 280.469c-4.16 4.16-4.16 10.923 0 15.083a10.716 10.716 0 0 0 7.552 3.115c2.731 0 5.461-1.045 7.531-3.115l64-64a10.643 10.643 0 0 0 2.304-3.477c.299-.747.341-1.515.469-2.304.107-.597.363-1.152.363-1.771 0-.811-.299-1.536-.469-2.283-.128-.576-.128-1.195-.363-1.749a11.19 11.19 0 0 0-2.368-3.563l-63.936-63.936c-4.16-4.16-10.923-4.16-15.083 0s-4.16 10.923 0 15.083l45.76 45.781H32c-5.888 0-10.667 4.779-10.667 10.667S26.112 234.667 32 234.667h187.584l-45.803 45.802z"/><path d="M444.608 0c-1.643 0-3.243.32-4.843.491-.81-.192-1.578-.491-2.432-.491h-256C151.936 0 128 23.936 128 53.333V160c0 5.888 4.779 10.667 10.667 10.667s10.667-4.779 10.667-10.667V53.333c0-17.643 14.357-32 32-32h204.032l-80.107 34.325a46.033 46.033 0 0 0-27.925 42.347v328.661h-96c-15.339 0-28.373-10.667-31.552-15.083l-.448-123.627c-.021-5.867-4.8-10.624-10.667-10.624h-.043c-5.888.021-10.645 4.821-10.624 10.709l.491 124.309c-.427 4.672 1.771 9.557 6.677 14.933 8.725 9.557 26.048 20.715 46.165 20.715h96v17.941c0 25.387 20.672 46.059 46.059 46.059a45.811 45.811 0 0 0 18.133-3.712l121.216-51.947a46.033 46.033 0 0 0 27.925-42.347V46.059C490.667 20.672 469.995 0 444.608 0zm24.725 413.995a24.677 24.677 0 0 1-14.997 22.72L333.12 488.661c-3.072 1.344-6.357 2.005-9.728 2.005-13.632 0-24.725-11.093-24.725-24.725V98.005a24.677 24.677 0 0 1 14.997-22.72L434.88 23.339c3.072-1.344 6.357-2.005 9.728-2.005 13.632 0 24.725 11.093 24.725 24.725v367.936z"/><path d="M330.667 234.667c-5.888 0-10.667 4.779-10.667 10.667V288c0 5.888 4.779 10.667 10.667 10.667s10.667-4.779 10.667-10.667v-42.667c-.001-5.888-4.779-10.666-10.667-10.666z"/></symbol><symbol viewBox="0 0 31.49 31.49" id="next" xmlns="http://www.w3.org/2000/svg"><path d="M21.205 5.007a1.112 1.112 0 0 0-1.587 0 1.12 1.12 0 0 0 0 1.571l8.047 8.047H1.111A1.106 1.106 0 0 0 0 15.737c0 .619.492 1.127 1.111 1.127h26.554l-8.047 8.032c-.429.444-.429 1.159 0 1.587a1.112 1.112 0 0 0 1.587 0l9.952-9.952a1.093 1.093 0 0 0 0-1.571l-9.952-9.953z"/></symbol><symbol viewBox="0 0 512 512" id="pdf" xmlns="http://www.w3.org/2000/svg"><path d="M494.479 138.557L364.04 3.018A9.853 9.853 0 0 0 356.945 0h-194.41c-21.757 0-39.458 17.694-39.458 39.442v137.789H44.29c-16.278 0-29.521 13.239-29.521 29.513v147.744C14.769 370.761 28.012 384 44.29 384h78.787v88.627c0 21.71 17.701 39.373 39.458 39.373h295.238c21.757 0 39.458-17.653 39.458-39.351V145.385a9.85 9.85 0 0 0-2.752-6.828zM359.385 26.581l107.079 111.265H359.385V26.581zM44.29 364.308c-5.42 0-9.828-4.405-9.828-9.82V206.744c0-5.415 4.409-9.821 9.828-9.821h265.882c5.42 0 9.828 4.406 9.828 9.821v147.744c0 5.415-4.409 9.82-9.828 9.82H44.29zm433.248 108.341c0 10.84-8.867 19.659-19.766 19.659H162.535c-10.899 0-19.766-8.828-19.766-19.68V384h167.403c16.278 0 29.521-13.239 29.521-29.512V206.744c0-16.274-13.243-29.513-29.521-29.513H142.769V39.442c0-10.891 8.867-19.75 19.766-19.75h177.157v128c0 5.438 4.409 9.846 9.846 9.846h128v315.111z"/><path d="M132.481 249.894c-3.269-4.25-7.327-7.01-12.173-8.279-3.154-.846-9.923-1.269-20.308-1.269H72.596v84.577h17.077v-31.904h11.135c7.731 0 13.635-.404 17.712-1.212 3-.654 5.952-1.99 8.856-4.01 2.904-2.019 5.298-4.798 7.183-8.336 1.885-3.538 2.827-7.904 2.827-13.096-.001-6.731-1.636-12.221-4.905-16.471zm-14.625 23.279c-1.288 1.885-3.067 3.269-5.337 4.154s-6.769 1.327-13.5 1.327h-9.346v-24h8.25c6.154 0 10.25.192 12.288.577 2.769.5 5.058 1.75 6.865 3.75 1.808 2 2.712 4.539 2.712 7.615.001 2.5-.644 4.692-1.932 6.577zm101.625-9.721c-1.846-5.404-4.539-9.971-8.077-13.702s-7.789-6.327-12.75-7.789c-3.692-1.077-9.058-1.615-16.096-1.615h-31.212v84.577h32.135c6.308 0 11.346-.596 15.115-1.789 5.039-1.615 9.039-3.865 12-6.75 3.923-3.808 6.942-8.788 9.058-14.942 1.731-5.039 2.596-11.039 2.596-18 0-7.923-.923-14.586-2.769-19.99zm-16.616 34.731c-1.154 3.789-2.644 6.51-4.471 8.163-1.827 1.654-4.125 2.827-6.894 3.519-2.115.539-5.558.808-10.327.808h-12.75v-56.019h7.673c6.961 0 11.635.269 14.019.808 3.192.692 5.827 2.019 7.904 3.981 2.077 1.962 3.692 4.692 4.846 8.192s1.731 8.519 1.731 15.058c0 6.538-.577 11.701-1.731 15.49zm91.962-43.529v-14.308h-57.981v84.577h17.077v-35.942h35.308v-14.308h-35.308v-20.019z"/></symbol><symbol viewBox="0 0 314.068 314.068" id="play" xmlns="http://www.w3.org/2000/svg"><path d="M293.002 78.53C249.646 3.435 153.618-22.296 78.529 21.068 3.434 64.418-22.298 160.442 21.066 235.534c43.35 75.095 139.375 100.83 214.465 57.47 75.096-43.365 100.84-139.384 57.471-214.474zm-73.168 187.271c-60.067 34.692-136.894 14.106-171.576-45.973C13.568 159.761 34.161 82.935 94.23 48.26c60.071-34.69 136.894-14.106 171.578 45.971 34.685 60.076 14.098 136.886-45.974 171.57zm-6.279-115.149l-82.214-47.949c-7.492-4.374-13.535-.877-13.493 7.789l.421 95.174c.038 8.664 6.155 12.191 13.669 7.851l81.585-47.103c7.506-4.332 7.522-11.388.032-15.762z"/></symbol><symbol viewBox="0 0 384.97 384.97" id="scroll_up" xmlns="http://www.w3.org/2000/svg"><path d="M192.485 0C86.173 0 0 86.185 0 192.485 0 298.797 86.173 384.97 192.485 384.97c106.3 0 192.485-86.173 192.485-192.485C384.97 86.185 298.785 0 192.485 0zm0 360.909c-92.874 0-168.797-75.55-168.797-168.424S99.611 24.061 192.485 24.061s168.424 75.55 168.424 168.424-75.55 168.424-168.424 168.424z"/><path d="M200.894 135.858c-4.62-4.572-12.56-4.584-17.191 0l-84.2 82.997c-4.74 4.704-4.74 12.319 0 17.011 4.752 4.704 12.439 4.704 17.191 0l75.61-74.528 75.61 74.54c4.74 4.704 12.439 4.704 17.191 0 4.74-4.704 4.74-12.319 0-17.011l-84.211-83.009z"/></symbol><symbol viewBox="0 0 52.966 52.966" id="search" xmlns="http://www.w3.org/2000/svg"><path d="M51.704 51.273L36.845 35.82c3.79-3.801 6.138-9.041 6.138-14.82 0-11.58-9.42-21-21-21s-21 9.42-21 21 9.42 21 21 21c5.083 0 9.748-1.817 13.384-4.832l14.895 15.491a.998.998 0 0 0 1.414.028 1 1 0 0 0 .028-1.414zM21.983 40c-10.477 0-19-8.523-19-19s8.523-19 19-19 19 8.523 19 19-8.524 19-19 19z"/></symbol><symbol viewBox="0 0 512 512" id="vk" xmlns="http://www.w3.org/2000/svg"><path d="M434.79 342.767l-5.074-8.289a218.599 218.599 0 0 0-35.67-44.145l-16.965-16.154a4.438 4.438 0 0 1-.575-5.797l23.164-33.008a145.059 145.059 0 0 0 9.163-14.899l19.794-37.037c3.45-6.454 3.266-14.057-.494-20.337-3.758-6.279-10.373-10.034-17.691-10.042l-42.845-.049h-.026a22.62 22.62 0 0 0-20.712 13.529l-4.538 10.34a255.708 255.708 0 0 1-46.988 71.525v-75.487c0-10.982-8.935-19.917-19.916-19.917h-60.681c-9.964 0-18.069 8.106-18.069 18.07 0 3.805 1.173 7.45 3.391 10.538l4.246 5.915a33.7 33.7 0 0 1 6.363 19.772v55.159c-7.483-8.691-16.594-20.493-24.307-34.062-11.811-20.78-20.277-45.011-24.272-57.606C158.713 160.148 148.949 153 137.79 153H94.396c-6.124 0-11.756 2.8-15.456 7.682-3.697 4.883-4.866 11.065-3.205 16.962l8.095 28.73a264.6 264.6 0 0 0 20.27 50.957c2.562 4.891 8.604 6.78 13.498 4.217 4.893-2.563 6.78-8.607 4.217-13.499a244.683 244.683 0 0 1-18.734-47.098L95.206 173h42.585a5.47 5.47 0 0 1 5.233 3.833c4.233 13.343 13.233 39.07 25.95 61.441 10.434 18.356 23.093 33.648 31.877 43.244 4.812 5.257 12.216 6.988 18.862 4.404 6.654-2.585 10.954-8.868 10.954-16.005v-62.622c0-11.349-3.499-22.22-10.116-31.437L218.498 173h56.835v80.195a17.087 17.087 0 0 0 7.881 14.434 17.082 17.082 0 0 0 16.403 1.175l4.123-1.882a15.946 15.946 0 0 0 5.018-3.594 275.711 275.711 0 0 0 51.878-78.413l4.538-10.34a2.616 2.616 0 0 1 2.397-1.566h.003l42.845.049c.146 0 .367.001.555.315.189.315.084.509.016.638l-19.794 37.036a125.189 125.189 0 0 1-7.896 12.838l-23.164 33.008c-7.012 9.992-5.685 23.353 3.154 31.77l16.964 16.154a198.62 198.62 0 0 1 32.406 40.104l5.074 8.289c.122.199.493.806.031 1.631-.462.825-1.174.825-1.407.825h-36.989a17.8 17.8 0 0 1-12.692-5.361l-36.986-38.03a63.48 63.48 0 0 0-31.988-17.797c-5.473-1.203-11.123.122-15.493 3.637s-6.876 8.746-6.876 14.353v37.366a5.84 5.84 0 0 1-5.833 5.833c-28.662 0-56.985-9.59-79.752-27.003a244.9 244.9 0 0 1-26.001-22.994c-3.866-3.942-10.197-4.007-14.142-.14-3.944 3.867-4.006 10.199-.14 14.142a264.86 264.86 0 0 0 28.132 24.878c26.235 20.066 58.873 31.117 91.902 31.117 14.244 0 25.833-11.589 25.833-25.833V314.48a43.52 43.52 0 0 1 20.02 11.74l36.986 38.03c7.056 7.255 16.908 11.417 27.03 11.417h36.989a21.631 21.631 0 0 0 18.855-11.05 21.637 21.637 0 0 0-.423-21.85z"/><path d="M140.056 277.553l-.111-.155c-3.219-4.488-9.465-5.519-13.954-2.3-4.488 3.219-5.518 9.466-2.3 13.954l.068.096 8.17-5.768-8.127 5.827a9.988 9.988 0 0 0 8.136 4.174 9.959 9.959 0 0 0 5.818-1.874c4.488-3.219 5.518-9.466 2.3-13.954zM204.864 444h-81.5c-5.522 0-10 4.477-10 10s4.478 10 10 10h81.5c5.523 0 10-4.477 10-10s-4.478-10-10-10zm45.5 0h-.119c-5.522 0-10 4.477-10 10s4.478 10 10 10h.119c5.523 0 10-4.477 10-10s-4.478-10-10-10z"/><path d="M446 0H66C29.607 0 0 29.607 0 66v380c0 36.393 29.607 66 66 66h380c36.393 0 66-29.607 66-66V66c0-36.393-29.607-66-66-66zm46 446c0 25.364-20.636 46-46 46H66c-25.364 0-46-20.636-46-46V66c0-25.364 20.636-46 46-46h380c25.364 0 46 20.636 46 46v380z"/></symbol></svg>